<svg xmlns="http://www.w3.org/2000/svg" xmlns:xlink="http://www.w3.org/1999/xlink" width="500" zoomAndPan="magnify" viewBox="0 0 375 374.999991" height="500" preserveAspectRatio="xMidYMid meet" version="1.0"><defs><g/><clipPath id="7fd63dc64d"><path d="M 92 120.605469 L 294.421875 120.605469 L 294.421875 224.105469 L 92 224.105469 Z M 92 120.605469 " clip-rule="nonzero"/></clipPath><clipPath id="b480f9cfed"><path d="M 217.601562 136.789062 L 252.101562 136.789062 L 252.101562 171.289062 L 217.601562 171.289062 Z M 217.601562 136.789062 " clip-rule="nonzero"/></clipPath><clipPath id="3bfdbf9fdb"><path d="M 102.34375 149.046875 L 124.84375 149.046875 L 124.84375 171.546875 L 102.34375 171.546875 Z M 102.34375 149.046875 " clip-rule="nonzero"/></clipPath></defs><g clip-path="url(#7fd63dc64d)"><path fill="#ffffff" d="M 100.25 204.117188 C 97.664062 199.898438 95.632812 195.304688 94.257812 190.4375 C 92.917969 185.699219 92.203125 180.699219 92.203125 175.535156 C 92.203125 160.421875 98.324219 146.746094 108.226562 136.84375 C 118.125 126.941406 131.808594 120.816406 146.929688 120.804688 C 158.1875 120.800781 168.652344 124.183594 177.351562 130 C 186.203125 135.910156 193.226562 144.339844 197.40625 154.269531 L 197.558594 154.636719 L 197.554688 154.640625 C 197.808594 155.257812 198.09375 155.984375 198.589844 157.332031 C 199.171875 158.917969 200.066406 161.414062 201.570312 165.730469 L 201.746094 166.234375 C 204.753906 174.867188 210.066406 190.117188 217.847656 200.941406 C 221.453125 205.957031 225.59375 210.03125 229.816406 213.246094 C 234.847656 217.082031 239.992188 219.695312 244.472656 221.230469 C 249.914062 223.097656 254.382812 223.371094 258.519531 223.109375 L 258.519531 222.96875 C 259.472656 222.96875 260.410156 222.929688 261.34375 222.855469 C 262.433594 222.730469 263.515625 222.585938 264.59375 222.441406 C 271.816406 221.175781 278.273438 217.695312 283.246094 212.726562 C 289.574219 206.398438 293.488281 197.65625 293.488281 188 C 293.488281 178.34375 289.574219 169.601562 283.246094 163.277344 C 277.332031 157.359375 269.304688 153.554688 260.398438 153.085938 C 261.40625 153.910156 262.046875 155.160156 262.046875 156.5625 C 262.046875 159.046875 260.035156 161.054688 257.554688 161.054688 C 255.074219 161.054688 253.0625 159.042969 253.0625 156.5625 C 253.0625 154.082031 255.074219 152.070312 257.554688 152.070312 C 257.886719 152.070312 258.210938 152.105469 258.519531 152.175781 L 258.519531 152.121094 C 268.425781 152.121094 277.398438 156.136719 283.890625 162.632812 C 290.382812 169.125 294.398438 178.09375 294.398438 188 C 294.398438 197.90625 290.382812 206.878906 283.890625 213.371094 C 278.800781 218.460938 272.191406 222.027344 264.800781 223.332031 C 263.667969 223.53125 262.519531 223.675781 261.355469 223.769531 C 256.328125 224.332031 251.015625 224.441406 244.175781 222.09375 C 239.617188 220.527344 234.382812 217.871094 229.261719 213.96875 C 224.980469 210.703125 220.773438 206.566406 217.109375 201.472656 C 209.25 190.539062 203.910156 175.210938 200.886719 166.53125 L 200.710938 166.027344 C 199.230469 161.785156 198.335938 159.28125 197.734375 157.648438 C 197.144531 156.050781 196.855469 155.332031 196.5625 154.613281 C 192.453125 144.851562 185.546875 136.566406 176.847656 130.753906 C 168.289062 125.035156 158 121.707031 146.933594 121.714844 C 132.0625 121.722656 118.609375 127.75 108.871094 137.488281 C 99.132812 147.222656 93.113281 160.671875 93.113281 175.535156 C 93.113281 180.617188 93.816406 185.535156 95.132812 190.191406 C 96.484375 194.984375 98.484375 199.5 101.027344 203.644531 C 103.738281 208.066406 107.558594 211.734375 112.097656 214.269531 C 116.488281 216.722656 121.554688 218.117188 126.941406 218.117188 C 135.316406 218.117188 142.898438 214.722656 148.386719 209.234375 C 153.875 203.742188 157.269531 196.160156 157.269531 187.785156 C 157.269531 179.410156 153.875 171.828125 148.386719 166.339844 C 143.285156 161.238281 136.375 157.945312 128.699219 157.507812 C 128.933594 157.855469 129.070312 158.277344 129.070312 158.730469 C 129.070312 159.945312 128.082031 160.933594 126.863281 160.933594 C 125.648438 160.933594 124.660156 159.945312 124.660156 158.730469 C 124.660156 157.511719 125.648438 156.523438 126.863281 156.523438 C 126.964844 156.523438 127.066406 156.53125 127.164062 156.546875 C 135.703125 156.605469 143.425781 160.089844 149.03125 165.695312 C 154.6875 171.347656 158.183594 179.160156 158.183594 187.785156 C 158.183594 196.414062 154.6875 204.222656 149.03125 209.878906 C 143.378906 215.53125 135.566406 219.027344 126.941406 219.027344 C 121.398438 219.027344 116.183594 217.589844 111.65625 215.0625 C 106.980469 212.449219 103.042969 208.671875 100.25 204.117188 Z M 100.25 204.117188 " fill-opacity="1" fill-rule="nonzero"/></g><g fill="#ffffff" fill-opacity="1"><g transform="translate(142.345535, 205.20296)"><g><path d="M 31.484375 -11.09375 C 31.273438 -8.53125 30.570312 -6.429688 29.375 -4.796875 C 28.1875 -3.160156 26.664062 -1.953125 24.8125 -1.171875 C 22.96875 -0.390625 20.898438 0 18.609375 0 C 15.242188 0 12.285156 -0.640625 9.734375 -1.921875 C 7.179688 -3.203125 5.1875 -5.003906 3.75 -7.328125 C 2.320312 -9.648438 1.609375 -12.359375 1.609375 -15.453125 C 1.609375 -18.535156 2.269531 -21.222656 3.59375 -23.515625 C 4.925781 -25.804688 6.757812 -27.59375 9.09375 -28.875 C 11.4375 -30.15625 14.132812 -30.796875 17.1875 -30.796875 C 19.082031 -30.796875 20.882812 -30.503906 22.59375 -29.921875 C 24.3125 -29.347656 25.8125 -28.429688 27.09375 -27.171875 C 28.375 -25.921875 29.375 -24.316406 30.09375 -22.359375 C 30.8125 -20.410156 31.140625 -18.0625 31.078125 -15.3125 L 12.28125 -15.3125 C 12.28125 -11.914062 12.644531 -9.222656 13.375 -7.234375 C 14.113281 -5.253906 15.175781 -3.828125 16.5625 -2.953125 C 17.957031 -2.085938 19.632812 -1.65625 21.59375 -1.65625 C 23.144531 -1.65625 24.585938 -1.972656 25.921875 -2.609375 C 27.253906 -3.253906 28.367188 -4.269531 29.265625 -5.65625 C 30.171875 -7.050781 30.726562 -8.863281 30.9375 -11.09375 Z M 17.140625 -30.203125 C 15.429688 -30.203125 14.203125 -28.972656 13.453125 -26.515625 C 12.703125 -24.054688 12.3125 -20.503906 12.28125 -15.859375 L 21.3125 -15.859375 C 21.3125 -16.835938 21.3125 -17.957031 21.3125 -19.21875 C 21.3125 -20.488281 21.257812 -21.765625 21.15625 -23.046875 C 21.050781 -24.335938 20.851562 -25.523438 20.5625 -26.609375 C 20.269531 -27.691406 19.847656 -28.5625 19.296875 -29.21875 C 18.742188 -29.875 18.023438 -30.203125 17.140625 -30.203125 Z M 17.140625 -30.203125 "/></g></g></g><g fill="#ffffff" fill-opacity="1"><g transform="translate(172.59617, 205.20296)"><g><path d="M 28.5625 -30.203125 L 29.296875 -30.203125 L 15.578125 0 L 15.546875 0 L 0.546875 -30.203125 L 1.046875 -30.203125 C 3.066406 -30.203125 4.992188 -29.835938 6.828125 -29.109375 C 8.660156 -28.378906 10.296875 -27.335938 11.734375 -25.984375 C 13.171875 -24.640625 14.300781 -23.050781 15.125 -21.21875 L 17.5625 -15.953125 C 17.800781 -15.460938 18.125 -15.101562 18.53125 -14.875 C 18.945312 -14.644531 19.382812 -14.53125 19.84375 -14.53125 C 20.300781 -14.53125 20.738281 -14.644531 21.15625 -14.875 C 21.570312 -15.101562 21.882812 -15.460938 22.09375 -15.953125 Z M 28.5625 -30.203125 "/></g></g></g><g fill="#ffffff" fill-opacity="1"><g transform="translate(199.455006, 205.20296)"><g><path d="M 31.484375 -11.09375 C 31.273438 -8.53125 30.570312 -6.429688 29.375 -4.796875 C 28.1875 -3.160156 26.664062 -1.953125 24.8125 -1.171875 C 22.96875 -0.390625 20.898438 0 18.609375 0 C 15.242188 0 12.285156 -0.640625 9.734375 -1.921875 C 7.179688 -3.203125 5.1875 -5.003906 3.75 -7.328125 C 2.320312 -9.648438 1.609375 -12.359375 1.609375 -15.453125 C 1.609375 -18.535156 2.269531 -21.222656 3.59375 -23.515625 C 4.925781 -25.804688 6.757812 -27.59375 9.09375 -28.875 C 11.4375 -30.15625 14.132812 -30.796875 17.1875 -30.796875 C 19.082031 -30.796875 20.882812 -30.503906 22.59375 -29.921875 C 24.3125 -29.347656 25.8125 -28.429688 27.09375 -27.171875 C 28.375 -25.921875 29.375 -24.316406 30.09375 -22.359375 C 30.8125 -20.410156 31.140625 -18.0625 31.078125 -15.3125 L 12.28125 -15.3125 C 12.28125 -11.914062 12.644531 -9.222656 13.375 -7.234375 C 14.113281 -5.253906 15.175781 -3.828125 16.5625 -2.953125 C 17.957031 -2.085938 19.632812 -1.65625 21.59375 -1.65625 C 23.144531 -1.65625 24.585938 -1.972656 25.921875 -2.609375 C 27.253906 -3.253906 28.367188 -4.269531 29.265625 -5.65625 C 30.171875 -7.050781 30.726562 -8.863281 30.9375 -11.09375 Z M 17.140625 -30.203125 C 15.429688 -30.203125 14.203125 -28.972656 13.453125 -26.515625 C 12.703125 -24.054688 12.3125 -20.503906 12.28125 -15.859375 L 21.3125 -15.859375 C 21.3125 -16.835938 21.3125 -17.957031 21.3125 -19.21875 C 21.3125 -20.488281 21.257812 -21.765625 21.15625 -23.046875 C 21.050781 -24.335938 20.851562 -25.523438 20.5625 -26.609375 C 20.269531 -27.691406 19.847656 -28.5625 19.296875 -29.21875 C 18.742188 -29.875 18.023438 -30.203125 17.140625 -30.203125 Z M 17.140625 -30.203125 "/></g></g></g><g clip-path="url(#b480f9cfed)"><path fill="#ffffff" d="M 235.355469 146.0625 C 235.410156 146.546875 235.503906 147.023438 235.636719 147.492188 C 235.769531 147.960938 235.941406 148.414062 236.152344 148.855469 C 236.363281 149.292969 236.609375 149.710938 236.890625 150.109375 C 237.171875 150.507812 237.488281 150.878906 237.832031 151.222656 C 238.175781 151.566406 238.546875 151.882812 238.945312 152.164062 C 239.34375 152.445312 239.761719 152.691406 240.199219 152.902344 C 240.640625 153.113281 241.09375 153.285156 241.5625 153.417969 C 242.03125 153.550781 242.507812 153.644531 242.992188 153.699219 C 245.335938 153.953125 248.363281 154.121094 252.265625 154.121094 C 248.363281 154.121094 245.335938 154.285156 242.992188 154.542969 C 242.507812 154.597656 242.03125 154.691406 241.5625 154.824219 C 241.09375 154.957031 240.640625 155.128906 240.199219 155.339844 C 239.761719 155.550781 239.34375 155.796875 238.945312 156.078125 C 238.546875 156.359375 238.175781 156.671875 237.832031 157.019531 C 237.488281 157.363281 237.171875 157.734375 236.890625 158.132812 C 236.609375 158.527344 236.363281 158.949219 236.152344 159.386719 C 235.941406 159.828125 235.769531 160.28125 235.636719 160.75 C 235.503906 161.21875 235.410156 161.695312 235.355469 162.179688 C 235.101562 164.523438 234.933594 167.546875 234.933594 171.453125 C 234.933594 167.546875 234.769531 164.523438 234.511719 162.179688 C 234.457031 161.695312 234.367188 161.21875 234.230469 160.75 C 234.097656 160.28125 233.925781 159.828125 233.714844 159.386719 C 233.503906 158.949219 233.257812 158.527344 232.976562 158.132812 C 232.695312 157.734375 232.382812 157.363281 232.039062 157.019531 C 231.691406 156.671875 231.320312 156.359375 230.921875 156.078125 C 230.527344 155.796875 230.109375 155.550781 229.667969 155.339844 C 229.230469 155.128906 228.773438 154.957031 228.304688 154.824219 C 227.835938 154.691406 227.359375 154.597656 226.875 154.542969 C 224.53125 154.285156 221.507812 154.121094 217.601562 154.121094 C 221.507812 154.121094 224.53125 153.953125 226.875 153.699219 C 227.359375 153.644531 227.835938 153.550781 228.304688 153.417969 C 228.773438 153.285156 229.230469 153.113281 229.667969 152.902344 C 230.109375 152.691406 230.527344 152.445312 230.921875 152.164062 C 231.320312 151.882812 231.691406 151.566406 232.039062 151.222656 C 232.382812 150.878906 232.695312 150.507812 232.976562 150.109375 C 233.257812 149.710938 233.503906 149.292969 233.714844 148.855469 C 233.925781 148.414062 234.097656 147.960938 234.230469 147.492188 C 234.367188 147.023438 234.457031 146.546875 234.511719 146.0625 C 234.769531 143.71875 234.933594 140.695312 234.933594 136.789062 C 234.933594 140.691406 235.101562 143.71875 235.355469 146.0625 Z M 235.355469 146.0625 " fill-opacity="1" fill-rule="nonzero"/></g><g clip-path="url(#3bfdbf9fdb)"><path fill="#ffffff" d="M 113.820312 155.039062 C 113.890625 155.671875 114.0625 156.273438 114.335938 156.84375 C 114.613281 157.417969 114.972656 157.929688 115.421875 158.375 C 115.871094 158.824219 116.378906 159.1875 116.953125 159.460938 C 117.523438 159.734375 118.125 159.90625 118.757812 159.976562 C 120.273438 160.140625 122.226562 160.25 124.753906 160.25 C 122.226562 160.25 120.273438 160.355469 118.757812 160.523438 C 118.125 160.59375 117.523438 160.761719 116.953125 161.039062 C 116.378906 161.3125 115.871094 161.671875 115.421875 162.121094 C 114.972656 162.570312 114.613281 163.082031 114.335938 163.652344 C 114.0625 164.226562 113.890625 164.828125 113.820312 165.457031 C 113.65625 166.972656 113.550781 168.929688 113.550781 171.453125 C 113.550781 168.929688 113.441406 166.972656 113.277344 165.457031 C 113.207031 164.828125 113.035156 164.226562 112.761719 163.652344 C 112.488281 163.082031 112.125 162.570312 111.675781 162.121094 C 111.226562 161.671875 110.71875 161.3125 110.144531 161.039062 C 109.574219 160.761719 108.972656 160.59375 108.339844 160.523438 C 106.824219 160.355469 104.871094 160.25 102.34375 160.25 C 104.871094 160.25 106.824219 160.140625 108.339844 159.976562 C 108.972656 159.90625 109.574219 159.734375 110.144531 159.460938 C 110.71875 159.1875 111.226562 158.824219 111.675781 158.375 C 112.125 157.929688 112.488281 157.417969 112.761719 156.84375 C 113.035156 156.273438 113.207031 155.671875 113.277344 155.039062 C 113.441406 153.527344 113.550781 151.570312 113.550781 149.046875 C 113.550781 151.570312 113.65625 153.527344 113.820312 155.039062 Z M 113.820312 155.039062 " fill-opacity="1" fill-rule="nonzero"/></g></svg>